# xmcd
#
# Track frame offsets:
#	150
#	54870
#	75496
#	96504
#	149427
#	167115
#	193214
#	218524
#	236961
#	256848
#	284523
#
# Disc length: 4282 seconds
#
# Revision: 1
# Processed by: cddbd v1.5.2PL0 Copyright (c) Steve Scherf et al.
# Submitted via: audiograbber 1.83.01
#
DISCID=a010b80b
DTITLE=The Band Of Heathens - The Double Down (Live In Denver Vol.1)
DYEAR=2012
DGENRE=Americana
TTITLE0=You're Gonna Miss Me
TTITLE1=Golden Calf
TTITLE2=Say
TTITLE3=Somebody Tells The Trouth
TTITLE4=Let Your Heart Not Be Troubled
TTITLE5=LA County Blues
TTITLE6=Enough
TTITLE7=Whats This World
TTITLE8=Right Here With Me
TTITLE9=Nothing To See Here
TTITLE10=Should Have Known
EXTD=
EXTT0=
EXTT1=
EXTT2=
EXTT3=
EXTT4=
EXTT5=
EXTT6=
EXTT7=
EXTT8=
EXTT9=
EXTT10=
PLAYORDER=
